<?xml version="1.0" encoding="UTF-8"?>
<svg width="752pt" height="752pt" version="1.1" viewBox="0 0 752 752" xmlns="http://www.w3.org/2000/svg">
 <path d="m574.43 429.85-66.301-198.9h-0.003906c-0.97266-2.9453-3.3242-5.2305-6.2969-6.1094l-175.23-52.094c-3.3594-1.0156-7.0039-0.085938-9.4688 2.4141l-146.81 146.81h-0.003906c-2.5547 2.5547-3.4375 6.3359-2.2734 9.7578l71.039 208.38c1.1484 3.4414 4.1641 5.9258 7.7656 6.3945l170.49 23.68 1.2812-0.003906c2.2773 0 4.4805-0.82422 6.2031-2.3203l146.81-127.87c2.8945-2.5039 3.9961-6.5 2.7969-10.133zm-319.48 97.699 33.91-165.52 156.66 161.02zm250.14-238.26-212.78 56.449 33.434-150.36zm-222.58 57.398-90.453-19.656 121.8-121.52zm171.06 171.01-158.51-162.86 215.34-57.16 0.56641 1.6562-56.828 217.85zm50.293-239.77-144.54-75.773 132.6 39.355zm-314.17 58.297 90.738 19.75-31.543 153.87zm225.95 214.49-108.31-15.016 128.96-2.9375zm51.383-44.707 49.441-190.19 37.887 114.04zm-130.61-198.67c0.97656-6.793 4.0391-13.113 8.7617-18.09 3.2812-3.793 6.1953-7.8828 8.7148-12.219 1.6055-3.0977 1.7266-6.75 0.32812-9.9453-1.0703-2.5508-2.9492-4.6836-5.3516-6.0625-2.5117-1.3867-5.4648-1.7422-8.2383-0.99609-4.2617 0.94531-6.5352 3.0312-6.9141 6.2031v0.003906c-0.003907 2.832 0.57422 5.6406 1.7031 8.2383l-14.207 3.3164c-1.8672-4.4883-2.5508-9.3789-1.9883-14.207 1.2305-7.1523 6.6289-11.699 16.102-13.781 6.6289-1.6992 13.629-1.1836 19.938 1.4688 5.7734 2.4961 10.391 7.0781 12.93 12.832 2.0781 4.2148 2.4336 9.0703 0.99609 13.543-1.4727 3.9531-3.6367 7.6094-6.3945 10.801l-4.0273 5.1133c-2.5586 3.1562-4.2617 5.4766-5.1133 6.9609-0.69922 1.3945-1.1484 2.9023-1.3242 4.4531l31.352-8.2422 5.2578 11.602-50.391 13.688c-1.8555-4.6562-2.582-9.6875-2.1328-14.68zm70.707-64.832c6.9414 5.8906 12.488 13.25 16.242 21.547 4.4961 7.5703 6.9023 16.199 6.9609 25.004-0.47266 6.6289-5.0195 11.176-13.59 13.496v0.003906c-7.6914 2.5625-16.152 1.1016-22.543-3.8867-7.3359-6.3555-13.062-14.355-16.719-23.348-4.1836-7.5898-6.1523-16.207-5.6836-24.859 0.94531-6.1562 5.6367-10.133 14.207-11.98v-0.003906c7.2852-1.9805 15.078-0.49219 21.125 4.0273zm-5.9688 45.746c2.4297 3.3398 6.6523 4.8594 10.656 3.8359 1.7266-0.3125 3.2383-1.3516 4.1445-2.8594 0.90625-1.5039 1.1211-3.3281 0.58984-5-1.3008-5.9023-3.4219-11.594-6.2969-16.906-2.5469-5.6797-5.8242-10.996-9.7578-15.82-2.3984-2.9297-6.2578-4.2344-9.9453-3.3633-1.6094 0.19531-3.0703 1.0508-4.0312 2.3594-0.96094 1.3125-1.3359 2.9609-1.0352 4.5586 1.1016 5.8438 3.0625 11.496 5.8242 16.762 2.543 5.8906 5.8555 11.414 9.8516 16.434z"/>
</svg>
