<?xml version="1.0" encoding="UTF-8"?>
<svg width="752pt" height="752pt" version="1.1" viewBox="0 0 752 752" xmlns="http://www.w3.org/2000/svg">
 <path d="m546.87 285.26-174.09-111.38c-3.3672-2.2305-7.7812-2.0781-10.988 0.37891l-157.42 118.39c-2.4531 1.9258-3.7969 4.9375-3.5977 8.0508l4.7344 142.07c0.10547 2.9219 1.5586 5.6289 3.9297 7.3398l174.14 125.21c1.6133 1.168 3.5508 1.7969 5.543 1.8008 2.332 0.070313 4.6094-0.72266 6.3906-2.2266l147.9-135.07c1.8828-1.7188 2.9922-4.1289 3.0781-6.6758l4.7344-139.61c0.10938-3.3359-1.5469-6.4844-4.3555-8.2891zm-178.73-91.922 162.01 103.71-141.36 123.13-166.42-117.07zm-143.68 244.23-4.168-124.22 164.09 115.12v124.13zm169.54 113.19-0.003906-122.66 137.77-119.91-4.2148 120.34zm-30.027-277.47c-1.7812-1.3008-3.8711-2.1172-6.0625-2.3672-4.0898-0.65234-8.2188 0.91797-10.844 4.1211-4.4531 4.9727-4.4531 11.176 0 18.66v-0.003906c4.0703 5.7656 8.8398 11 14.207 15.582-1.0234-3.832-1.0234-7.8633 0-11.695 1.1719-3.8359 3.1602-7.375 5.8242-10.375 5.7383-6.8047 14.207-10.711 23.109-10.652 9.9648 0.11328 19.582 3.6562 27.234 10.039 8.5234 6.3398 14.891 15.152 18.23 25.242 3.3633 10.133 1.1367 20.27-6.7734 30.402h0.003906c-3.9297 5.3086-9.3945 9.2773-15.656 11.367-6.2617 2.0938-13.016 2.2109-19.344 0.33203-13.285-3.6016-25.535-10.289-35.754-19.512-5.8594-4.7617-11.441-9.8555-16.719-15.25-6.1367-6.2461-11.051-13.59-14.492-21.645-2.2227-5.5391-3.0195-11.547-2.3203-17.473 0.83594-6.0469 3.5703-11.668 7.8164-16.055 5.4609-6.5117 13.168-10.734 21.594-11.84 8.207-0.78125 16.422 1.4023 23.156 6.1562zm36.75 61.566c4.832 0.46094 9.5625-1.5742 12.551-5.3984 2.9492-3.4766 3.8008-8.2734 2.2266-12.551-1.8867-5.1641-5.2852-9.6367-9.7578-12.832-4.2656-3.9414-9.7422-6.3125-15.535-6.7266-4.4297-0.20703-8.7031 1.668-11.555 5.0664-2.2695 2.625-3.4688 6.0039-3.3594 9.4727 0.65625 6.4805 4.1172 12.348 9.4688 16.055 4.4062 3.9922 10.031 6.375 15.961 6.7734z"/>
</svg>
